<svg width="20" height="20" viewBox="0 0 38 38" fill="none" xmlns="http://www.w3.org/2000/svg">
    <path fill-rule="evenodd" clip-rule="evenodd" d="M30.0906 16.2161H29.9245V9.80628C29.9245 9.10094 29.3326 8.67774 28.7406 8.67774H23.1761C23.1761 6.56869 20.5121 4.75 18.2925 4.75C16.073 4.75 13.3674 6.50807 13.3674 8.67774H7.51746C6.77748 8.67774 6.3335 9.10094 6.3335 9.80628V17.3446C6.3335 18.05 6.92548 18.4732 7.51746 18.4732H8.47553C9.80749 18.4732 10.8279 19.4606 10.8279 20.8713C10.8279 22.1409 9.95549 23.2694 8.47553 23.2694H7.51746C6.77748 23.2694 6.3335 23.8337 6.3335 24.398V30.5381C6.3335 31.2435 6.92548 31.6667 7.51746 31.6667H28.5926C29.3326 31.6667 29.7765 31.1024 29.7765 30.5381V26.8432V25.5265H29.9427C32.6066 25.5265 34.8265 23.4105 34.8265 20.8713C34.9745 18.3321 32.7546 16.2161 30.0906 16.2161ZM29.7765 23.2694H30.0906C31.4226 23.2694 32.4586 22.1409 32.4586 20.8713C32.4586 19.4606 31.2746 18.4732 29.9427 18.4732H29.7765V23.2694ZM27.4086 17.8117V17.3446V10.9348H8.70142V16.2161H8.32754C10.9915 16.2161 13.0478 18.3321 13.0478 20.8713C13.0478 23.4105 10.9915 25.5265 8.32754 25.5265H8.70142V29.4096H27.4086V26.8432V17.8117ZM18.251 6.76458C19.502 6.76458 20.7666 7.53866 20.7666 8.67774H15.7356C15.7608 7.42743 17 6.76458 18.251 6.76458Z"
          fill="white"
          fill-opacity="0.97" stroke="white" stroke-width="0.863636"></path>
    <rect x="15" y="7" width="6" height="2" fill="white"></rect>
    <rect x="29" y="18" width="4" height="5" fill="white"></rect>
</svg>